<?xml version="1.0" standalone="no"?>
<!DOCTYPE svg PUBLIC "-//W3C//DTD SVG 20010904//EN"
 "http://www.w3.org/TR/2001/REC-SVG-20010904/DTD/svg10.dtd">
<svg version="1.0" xmlns="http://www.w3.org/2000/svg"
 width="224.000000pt" height="224.000000pt" viewBox="0 0 224.000000 224.000000"
 preserveAspectRatio="xMidYMid meet">
<metadata>
Created by potrace 1.11, written by Peter Selinger 2001-2013
</metadata>
<g transform="translate(0.000000,224.000000) scale(0.100000,-0.100000)"
fill="#000000" stroke="none">
<path d="M274 2190 c3 -19 8 -45 12 -58 6 -22 5 -22 -22 -10 -16 6 -38 20 -50
30 -37 32 -46 16 -19 -36 19 -36 19 -50 0 -42 -19 7 -19 -4 1 -32 14 -21 14
-22 -8 -22 -19 0 -23 -5 -24 -35 0 -19 3 -35 8 -35 4 0 8 -4 8 -10 0 -5 -10
-10 -21 -10 -17 0 -19 -3 -10 -13 6 -8 8 -17 5 -20 -3 -3 4 -16 15 -29 l22
-23 -31 -10 c-17 -6 -35 -17 -40 -25 -13 -20 -13 -50 0 -50 5 0 9 10 7 22 -1
17 4 24 22 26 16 3 22 0 18 -10 -2 -7 -11 -12 -18 -10 -8 1 -5 -4 5 -13 20
-15 20 -15 1 -29 -19 -14 -19 -15 -1 -35 14 -15 15 -21 6 -21 -9 0 -7 -5 6
-16 14 -11 16 -17 6 -21 -9 -3 -10 -9 -2 -18 11 -13 4 -45 -11 -45 -5 0 -9 6
-9 13 0 7 -7 4 -15 -7 -13 -17 -13 -22 2 -39 17 -18 17 -19 -1 -32 -18 -14
-18 -16 4 -62 19 -41 21 -54 12 -87 -6 -25 -7 -48 -1 -64 6 -14 6 -29 1 -36
-17 -21 -21 -61 -13 -121 8 -53 7 -62 -12 -82 -16 -18 -17 -23 -6 -23 8 0 20
5 27 12 9 9 12 8 12 -4 0 -9 8 -19 18 -23 14 -5 11 -10 -18 -24 -35 -16 -35
-17 -32 -76 2 -33 3 -72 3 -87 0 -14 7 -32 15 -39 12 -10 12 -14 -6 -26 -11
-8 -18 -19 -15 -24 4 -5 2 -9 -4 -9 -13 0 -10 -42 4 -56 5 -5 18 -13 28 -17
23 -9 19 -66 -8 -88 -16 -14 -17 -19 -6 -33 11 -14 10 -19 -10 -37 -16 -13
-18 -19 -7 -16 21 7 50 -25 42 -47 -3 -9 -1 -23 6 -31 10 -13 10 -19 -4 -33
-9 -10 -16 -30 -16 -44 0 -31 -23 -52 -50 -45 -11 3 -20 1 -20 -5 0 -5 9 -12
20 -15 11 -3 20 -12 20 -20 0 -12 3 -13 13 -4 8 6 17 8 20 4 4 -3 7 -1 7 6 0
17 20 -5 39 -42 13 -25 13 -29 -4 -41 -12 -9 -15 -18 -9 -27 5 -8 7 -23 5 -34
-3 -19 -2 -19 16 -2 11 9 22 14 25 11 9 -8 49 16 43 25 -3 5 2 12 11 15 22 8
22 9 16 -19 -2 -14 0 -25 7 -25 5 0 8 -6 6 -12 -4 -9 12 -14 57 -16 66 -2 118
14 119 38 0 10 2 11 6 3 8 -21 23 -15 24 10 1 21 2 19 15 -23 5 -13 6 -13 14
0 8 13 10 12 10 -2 0 -10 4 -18 9 -18 5 0 12 -11 15 -25 8 -33 22 -32 30 1 5
20 10 24 19 15 15 -15 27 -14 27 3 0 8 13 17 29 21 16 3 35 13 42 21 6 8 22
14 36 14 14 0 21 4 18 10 -3 6 3 10 14 10 10 0 22 -6 24 -12 3 -7 6 -1 6 15 1
20 6 27 22 27 12 0 19 5 16 13 -2 7 -20 12 -42 12 -22 0 -40 5 -42 13 -3 8 6
12 29 12 48 0 66 14 51 39 -10 16 -7 24 22 54 33 34 34 36 14 42 -13 4 -27 1
-39 -10 -17 -16 -20 -15 -39 4 -12 12 -21 30 -21 40 0 11 -4 23 -10 26 -16 10
-11 21 11 22 12 1 27 10 34 20 12 16 11 18 -10 21 -33 4 -54 31 -35 42 8 5 24
16 35 24 19 16 19 16 -10 10 l-30 -6 22 19 c17 14 21 27 19 55 -3 31 0 37 20
41 13 2 28 -1 35 -7 8 -8 9 -5 4 14 -4 14 -11 30 -15 35 -12 15 -14 47 -5 79
5 18 4 36 -4 47 -15 25 -15 26 14 31 15 3 30 -1 37 -9 6 -8 20 -12 30 -9 13 3
22 -2 27 -17 7 -19 10 -18 27 18 10 22 27 47 37 55 10 8 19 25 20 38 1 12 5
22 10 22 10 0 6 -31 -8 -63 -5 -13 -3 -16 8 -12 9 4 16 -1 20 -14 3 -12 10
-21 17 -21 6 0 8 5 5 10 -14 23 24 8 39 -15 17 -26 42 -25 32 1 -3 8 -1 14 4
14 6 0 10 -7 10 -16 0 -12 3 -14 13 -6 6 6 29 10 50 9 21 -1 41 4 45 10 4 6
21 14 38 17 31 7 32 6 36 -36 3 -29 0 -46 -9 -51 -17 -10 -17 -75 1 -109 10
-19 11 -29 3 -37 -8 -8 -6 -11 7 -11 13 0 16 -4 9 -12 -5 -7 -8 -26 -8 -43 1
-16 -4 -43 -12 -58 -11 -23 -12 -31 -2 -43 9 -12 10 -17 1 -23 -6 -4 -8 -12
-2 -20 4 -8 6 -20 3 -27 -2 -6 0 -15 6 -19 6 -3 11 -1 11 6 0 7 3 9 7 6 3 -4
12 -2 20 4 10 9 13 6 13 -18 0 -16 5 -34 10 -39 7 -7 6 -21 -4 -45 -31 -78
-29 -163 4 -112 9 15 10 13 5 -12 -3 -16 -17 -46 -31 -66 -30 -43 -30 -47 -1
-58 17 -7 26 -4 39 12 13 16 18 18 18 7 0 -8 8 0 17 18 15 31 17 32 34 16 15
-14 21 -14 34 -4 12 10 16 9 21 -3 3 -9 19 -20 36 -26 26 -9 35 -8 50 6 18 16
21 16 48 0 26 -16 60 -14 60 3 0 12 40 19 71 13 33 -6 36 -15 14 -37 -8 -8
-15 -20 -15 -26 0 -21 25 -5 40 26 17 36 60 62 60 37 0 -11 7 -14 25 -11 17 4
25 1 25 -8 0 -19 35 -18 54 2 19 18 21 54 4 54 -7 0 -13 11 -13 25 0 14 4 25
8 25 5 0 7 8 5 18 -1 9 7 27 20 40 17 17 20 27 13 41 -6 10 -17 21 -26 25 -19
7 -19 32 0 40 19 7 19 31 2 48 -12 10 -11 18 5 45 21 35 20 72 -3 136 -12 34
-11 38 11 61 l23 25 -27 10 c-30 12 -32 19 -11 48 17 25 29 152 16 172 -6 9
-4 19 5 28 8 8 12 19 9 24 -14 22 25 65 80 88 40 17 53 26 43 32 -11 8 -11 10
1 18 11 7 10 10 -4 18 -10 6 -24 24 -31 41 -11 28 -11 33 4 42 13 9 10 9 -15
5 -42 -8 -43 3 -1 17 28 10 29 12 12 18 -11 4 -28 1 -41 -8 -28 -18 -30 -2 -3
23 27 24 27 50 1 35 -28 -14 -36 4 -15 35 10 16 18 50 19 90 2 61 1 65 -20 65
-20 0 -22 5 -21 44 1 30 8 53 24 70 29 34 28 42 -9 77 l-32 30 23 24 23 25
-36 0 c-20 0 -37 4 -37 8 0 5 10 8 22 8 26 -1 38 32 17 45 -11 6 -11 11 -1 21
16 16 15 28 -2 28 -9 0 -17 15 -21 40 -4 22 -11 43 -16 46 -6 3 -5 11 2 20 6
7 15 11 20 8 5 -3 9 9 9 26 0 20 -9 39 -25 54 -22 21 -23 24 -8 39 15 14 13
16 -18 25 -26 7 -37 6 -45 -4 -6 -8 -14 -11 -17 -7 -4 3 -13 0 -22 -7 -12 -10
-15 -10 -15 0 0 7 -11 23 -24 35 -24 22 -27 22 -82 9 -41 -9 -62 -10 -71 -3
-7 6 -29 15 -50 20 -30 6 -47 4 -82 -13 -24 -11 -60 -22 -80 -23 -46 -3 -45
-3 -32 -18 6 -8 8 -17 4 -20 -3 -4 -2 -7 4 -7 6 0 16 -21 22 -47 11 -42 10
-48 -8 -66 -22 -23 -21 -24 -36 65 -6 42 -43 77 -57 55 -8 -12 -9 -10 -12 16
-2 15 -47 11 -58 -6 -4 -6 -8 -26 -8 -44 0 -17 -6 -34 -12 -37 -9 -3 -7 -10 7
-21 19 -16 19 -17 1 -30 -19 -15 -14 -35 10 -35 20 0 29 -27 14 -45 -10 -11
-8 -20 9 -41 27 -34 27 -37 -9 -72 -16 -17 -30 -37 -30 -45 0 -17 24 -29 44
-21 11 4 13 0 9 -15 -3 -12 0 -28 7 -36 11 -13 10 -18 -6 -30 -10 -8 -27 -17
-36 -20 -26 -9 -22 -20 14 -49 l32 -25 -27 -6 c-15 -4 -27 -10 -27 -13 0 -3
16 -23 36 -43 32 -33 34 -38 20 -52 -9 -9 -16 -20 -16 -25 0 -6 -6 -12 -14
-15 -10 -4 -18 4 -25 24 -11 31 -38 39 -47 14 -4 -8 -13 -15 -21 -15 -9 0 -13
6 -9 15 3 9 -3 19 -14 25 -17 9 -22 7 -31 -17 -5 -15 -8 -36 -5 -46 3 -11 0
-17 -7 -14 -7 2 -12 15 -12 28 0 18 -7 25 -24 27 -14 2 -21 0 -17 -6 8 -14
-10 -25 -46 -27 -20 -2 -33 4 -41 16 -16 26 -36 24 -47 -6 -5 -14 -17 -25 -25
-25 -27 0 -149 32 -163 43 -14 11 -12 28 3 29 26 0 35 20 21 47 -8 14 -18 42
-24 62 -8 31 -7 37 9 47 16 10 17 15 7 32 -7 11 -20 20 -28 20 -16 0 -40 43
-40 71 0 9 7 19 15 23 20 7 9 33 -18 40 -21 5 -21 6 7 35 29 31 30 61 1 61 -8
0 -15 5 -15 10 0 6 9 10 20 10 20 0 24 10 20 63 -1 20 4 30 17 33 27 7 59 84
34 84 -5 0 -11 -7 -15 -15 -10 -26 -26 -16 -26 16 0 25 -6 32 -35 45 -20 8
-40 12 -45 9 -5 -3 -19 -1 -31 6 -16 8 -27 8 -43 0 -49 -25 -78 -32 -92 -21
-9 8 -19 8 -32 1 -20 -11 -40 -10 -59 2 -7 5 -18 5 -24 1 -6 -3 -22 6 -35 22
l-23 29 -1 -33 c0 -20 -4 -31 -10 -27 -6 3 -10 -4 -10 -16 0 -19 -10 -12 -61
41 l-61 65 6 -35z"/>
<path d="M1460 2163 c0 -5 5 -15 10 -23 8 -12 10 -11 10 8 0 12 -4 22 -10 22
-5 0 -10 -3 -10 -7z"/>
</g>
</svg>
